# xmcd
#
# Track frame offsets: 
#        150
#        25607
#        47162
#
# Disc length: 967 seconds
#
# Revision: 2
# Processed by: cddbd v1.5.2PL0 Copyright (c) Steve Scherf et al.
# Submitted via: ExactAudioCopy v1.0b3
#
DISCID=1a03c503
DTITLE=ユリアーナ・シャノー - もういちど教えてほしい
DYEAR=1999
DGENRE=JPop
TTITLE0=もういちど教えてほしい
TTITLE1=Into Your Heart, My Love Will Flow
TTITLE2=もういちど教えてほしい(MUSIC TRACK)
EXTD=YEAR: 1999
EXTT0=
EXTT1=
EXTT2=
PLAYORDER=
